<svg id="Layer_1" data-name="Layer 1" xmlns="http://www.w3.org/2000/svg" viewBox="0 0 216 144"><defs><style>.cls-1{fill:#4f90c7;}.cls-2{fill:#85bde7;}.cls-3{fill:#fff;}.cls-4{fill:none;stroke:#85bde7;stroke-linecap:round;stroke-width:3.08px;}</style></defs><title>cloud</title><g id="Group_48" data-name="Group 48"><path id="Path_66" data-name="Path 66" class="cls-1" d="M116.32,96H58.59a7.24,7.24,0,0,1-7.28-7.19v-71a7.24,7.24,0,0,1,7.18-7.29h57.83a7.42,7.42,0,0,1,7.29,7.29V88.38A7.48,7.48,0,0,1,116.32,96Z"/><path id="Path_67" data-name="Path 67" class="cls-2" d="M198.43,101.83c2.53-18.78-5.32-30-21.3-27.46-1.12-23.82-8.68-34.19-32.22-37.56C121.09,33.17,104.27,54.47,108.2,64c-.84-4.21-6.17-16.26-27.75-16.26-26.34-.28-30.54,26.91-26.9,30.55-5.6-9-37.27-15.13-36.43,23.54Z"/><path id="Path_68" data-name="Path 68" class="cls-3" d="M111.28,25.61H63.64a1.32,1.32,0,0,1-1.4-1.24.49.49,0,0,1,0-.17v-.56a1.32,1.32,0,0,1,1.24-1.4h47.8a1.32,1.32,0,0,1,1.4,1.24v.72a1.34,1.34,0,0,1-1.24,1.41Z"/><path id="Path_69" data-name="Path 69" class="cls-3" d="M111.28,34.57H63.64a1.31,1.31,0,0,1-1.4-1.24.43.43,0,0,1,0-.16v-.56a1.32,1.32,0,0,1,1.24-1.4h47.8a1.32,1.32,0,0,1,1.4,1.24v.72a1.32,1.32,0,0,1-1.24,1.4Z"/><path id="Path_70" data-name="Path 70" class="cls-3" d="M111.84,43.54H64.2a1.31,1.31,0,0,1-1.4-1.24.43.43,0,0,1,0-.16v-.56A1.31,1.31,0,0,1,64,40.18h47.8a1.31,1.31,0,0,1,1.4,1.24v.72a1.31,1.31,0,0,1-1.24,1.4Z"/></g><line id="Line_1" data-name="Line 1" class="cls-4" x1="40.1" y1="116.59" x2="37" y2="129.29"/><line id="Line_2" data-name="Line 2" class="cls-4" x1="70.31" y1="120.82" x2="67.2" y2="133.53"/><line id="Line_3" data-name="Line 3" class="cls-4" x1="100.51" y1="116.59" x2="97.41" y2="129.29"/><line id="Line_4" data-name="Line 4" class="cls-4" x1="130.72" y1="120.82" x2="127.61" y2="133.53"/><line id="Line_6" data-name="Line 6" class="cls-4" x1="187.32" y1="120.82" x2="184.22" y2="133.53"/><line id="Line_5" data-name="Line 5" class="cls-4" x1="160.92" y1="116.59" x2="157.82" y2="129.29"/></svg>