<svg id="Layer_1" data-name="Layer 1" xmlns="http://www.w3.org/2000/svg" viewBox="0 0 216 144"><defs><style>.cls-1{fill:#85bde7;}.cls-2{fill:#fff;}</style></defs><title>data4</title><g id="Group_64" data-name="Group 64"><path id="Path_85" data-name="Path 85" class="cls-1" d="M136.37,126.45H87C79.38,115.81,58.11,80.1,105.22,4.88l11.39,15.2h39.52l11.39-15.2c47.11,75.22,25.84,110.93,18.24,121.57H136.37"/><path id="Path_86" data-name="Path 86" class="cls-1" d="M125.19,139.12H70.09A11.32,11.32,0,0,1,58.87,127.9V67.19A11.32,11.32,0,0,1,70.09,56h54.59A11.32,11.32,0,0,1,135.9,67.19V127.9A10.89,10.89,0,0,1,125.19,139.12Z"/><path id="Path_87" data-name="Path 87" class="cls-1" d="M66.78,139.12H26.48a7.84,7.84,0,0,1-7.65-7.65V91.17a7.84,7.84,0,0,1,7.65-7.65h40.3a7.84,7.84,0,0,1,7.65,7.65v40.3a7.51,7.51,0,0,1-7.37,7.65Z"/><path id="Path_88" data-name="Path 88" class="cls-2" d="M76.21,127.39h42.86a7.86,7.86,0,0,0,7.65-7.65V87.59a7.86,7.86,0,0,0-7.65-7.65H76.72a7.86,7.86,0,0,0-7.65,7.65v32.14C69.07,124.33,72.13,127.39,76.21,127.39Z"/><path id="Path_89" data-name="Path 89" class="cls-2" d="M76.21,65.47h42.34a1.61,1.61,0,0,0,1.53-1.53h0a1.62,1.62,0,0,0-1.53-1.53H76.21a1.64,1.64,0,0,0-1.53,1.53h0A2.3,2.3,0,0,0,76.21,65.47Z"/><path id="Path_90" data-name="Path 90" class="cls-2" d="M28,97.29h27a1.64,1.64,0,0,0,1.53-1.53h0a1.63,1.63,0,0,0-1.53-1.53H28a1.63,1.63,0,0,0-1.53,1.53h0Q27.24,97.29,28,97.29Z"/><path id="Path_91" data-name="Path 91" class="cls-2" d="M28,103.92h27a1.64,1.64,0,0,0,1.53-1.53h0a1.64,1.64,0,0,0-1.53-1.53H28a1.64,1.64,0,0,0-1.53,1.53h0Q27.24,103.92,28,103.92Z"/><path id="Path_92" data-name="Path 92" class="cls-2" d="M28,111.06h27a1.63,1.63,0,0,0,1.53-1.53h0A1.64,1.64,0,0,0,55.05,108H28a1.64,1.64,0,0,0-1.53,1.53h0C27,110,27.5,111.06,28,111.06Z"/><path id="Path_93" data-name="Path 93" class="cls-2" d="M28,117.69h27a1.62,1.62,0,0,0,1.53-1.53h0a1.64,1.64,0,0,0-1.53-1.53H28a1.64,1.64,0,0,0-1.53,1.53h0Q27.24,117.69,28,117.69Z"/></g></svg>