<svg id="Layer_1" data-name="Layer 1" xmlns="http://www.w3.org/2000/svg" viewBox="0 0 216 144"><defs><style>.cls-1{fill:#85bde7;}.cls-2{fill:#4f90c7;}.cls-3{fill:#fff;}</style></defs><title>data3</title><g id="Group_65" data-name="Group 65"><path id="Path_34" data-name="Path 34" class="cls-1" d="M135.19,58.23c-4.66-14-12.12-29.83-23.54-48.23L100,25.61H59.23L47.58,10C36.16,28.4,28.94,44.25,24.28,58.23l56.85,19.1Z"/><path id="Path_35" data-name="Path 35" class="cls-2" d="M29.17,133.49H130.29c6.06-7.93,19.57-31.23,4.9-75.26L80.9,77.1,24.28,58.23C9.6,102.26,23.12,125.33,29.17,133.49Z"/></g><g id="Group_63" data-name="Group 63"><path id="Path_4" data-name="Path 4" class="cls-1" d="M186.53,134H129.2a11.9,11.9,0,0,1-11.79-11.79V58.45A11.9,11.9,0,0,1,129.2,46.66h57.33a11.9,11.9,0,0,1,11.79,11.79v63.76A11.9,11.9,0,0,1,186.53,134Z"/><path id="Path_7" data-name="Path 7" class="cls-1" d="M165.1,49.88H147.42a3.09,3.09,0,0,1-3.22-3v-.79a3.1,3.1,0,0,1,3-3.22H165.1a3.11,3.11,0,0,1,3.22,3v.79Q167.51,49.89,165.1,49.88Z"/><path id="Path_8" data-name="Path 8" class="cls-3" d="M137.24,127H178.5a9.6,9.6,0,0,0,9.64-9.57V62.74a9.61,9.61,0,0,0-9.56-9.65H137.24a9.61,9.61,0,0,0-9.65,9.57v54.73a9.61,9.61,0,0,0,9.57,9.65Z"/><path id="Path_13" data-name="Path 13" class="cls-1" d="M139.38,69.17h37A1.43,1.43,0,0,0,178,67.56V67a1.42,1.42,0,0,0-1.61-1.61h-37A1.42,1.42,0,0,0,137.77,67v.53A1.71,1.71,0,0,0,139.38,69.17Z"/><path id="Path_14" data-name="Path 14" class="cls-1" d="M139.38,79.35h37A1.43,1.43,0,0,0,178,77.74v-.53a1.43,1.43,0,0,0-1.61-1.61h-37a1.43,1.43,0,0,0-1.61,1.61v.53A1.43,1.43,0,0,0,139.38,79.35Z"/><path id="Path_15" data-name="Path 15" class="cls-1" d="M139.38,90.06h37a1.42,1.42,0,0,0,1.61-1.6v-.54a1.42,1.42,0,0,0-1.61-1.6h-37a1.42,1.42,0,0,0-1.61,1.6v.54A1.42,1.42,0,0,0,139.38,90.06Z"/><path id="Path_16" data-name="Path 16" class="cls-1" d="M139.38,100.78h37A1.42,1.42,0,0,0,178,99.17v-.53A1.43,1.43,0,0,0,176.35,97h-37a1.43,1.43,0,0,0-1.61,1.61v.53A1.42,1.42,0,0,0,139.38,100.78Z"/></g></svg>