<svg id="Layer_1" data-name="Layer 1" xmlns="http://www.w3.org/2000/svg" viewBox="0 0 216 144"><defs><style>.cls-1{fill:#85bde7;}.cls-2{fill:#4f90c7;}.cls-3{fill:#fff;}.cls-4{fill:none;stroke:#707071;stroke-width:0.46px;}.cls-5{fill:#79c3ec;}</style></defs><title>data2</title><g id="Group_53" data-name="Group 53"><path id="Path_34" data-name="Path 34" class="cls-1" d="M158.66,56.34c-5-15.14-13.12-32.3-25.49-52.23L120.56,21H76.4L63.79,4.11C51.42,24,43.6,41.2,38.56,56.34L100.12,77Z"/><path id="Path_35" data-name="Path 35" class="cls-2" d="M43.85,137.84H153.36c6.56-8.58,21.19-33.81,5.3-81.5L99.87,76.78,38.56,56.34C22.66,104,37.29,129,43.85,137.84Z"/></g><path id="Path_82" data-name="Path 82" class="cls-3" d="M89.58,72.74l4.29,15.14h16.4l4.29-15.14Z"/><path id="Path_84" data-name="Path 84" class="cls-3" d="M89.58,137.84l4.29-50h16.4l4.29,50"/><g id="Ellipse_4" data-name="Ellipse 4"><circle class="cls-3" cx="161.56" cy="111.64" r="28.26"/><circle class="cls-4" cx="161.56" cy="111.64" r="28.03"/></g><path id="Path_3" data-name="Path 3" class="cls-5" d="M146.86,110.59l5.77-4.87,9.75,12.41s5.33-23.06,31.05-40.35l4.88,7.53s-27.94,14.2-33.26,39h-4.44Z"/></svg>