<svg id="Layer_1" data-name="Layer 1" xmlns="http://www.w3.org/2000/svg" viewBox="0 0 216 144"><defs><style>.cls-1{fill:#85bde7;}.cls-2{fill:#fff;}</style></defs><title>data5</title><path id="Path_94" data-name="Path 94" class="cls-1" d="M188.24,118.41H35.49A12.21,12.21,0,0,1,23,106.51V44.27A12.22,12.22,0,0,1,34.89,31.76H188.24a12.22,12.22,0,0,1,12.51,11.91V105.9A12.78,12.78,0,0,1,188.24,118.41Z"/><path id="Path_95" data-name="Path 95" class="cls-2" d="M43.53,22.83c25-3.57,46.45-1.79,67,14.29a8.69,8.69,0,0,0,8,.9c12.5-7.15,39.3-19.66,68.78-16.08,3.57,0,5.36,3.57,5.36,7.14V97c0,4.46-3.58,7.14-8,7.14-13.4-2.68-40.2-4.46-65.21,10.72a6.69,6.69,0,0,1-8,0c-8.94-7.14-33-23.22-66.11-17.86-4.46.89-8-2.69-8-7.15V30C38.17,25.51,40,22.83,43.53,22.83Z"/></svg>