<svg id="Layer_1" data-name="Layer 1" xmlns="http://www.w3.org/2000/svg" viewBox="0 0 216 144"><defs><style>.cls-1{fill:#85bde7;}.cls-2{fill:#4f90c7;}.cls-3{fill:#fff;}</style></defs><title>data</title><g id="Group_49" data-name="Group 49"><path id="Path_34" data-name="Path 34" class="cls-1" d="M195.83,58.72c-4.67-14-12.14-29.86-23.57-48.3L160.59,26.06H119.76L108.09,10.42c-11.43,18.44-18.67,34.3-23.34,48.3l56.94,19.14Z"/><path id="Path_35" data-name="Path 35" class="cls-2" d="M89.66,134.09H190.93c6.06-7.93,19.6-31.27,4.9-75.37l-54.37,18.9L84.75,58.72C70.05,102.82,83.59,125.93,89.66,134.09Z"/></g><g id="Group_52" data-name="Group 52"><path id="Path_34-2" data-name="Path 34-2" class="cls-1" d="M93.5,82.83c-3.17-9.51-8.25-20.29-16-32.81L69.56,60.64H41.83L33.9,50A155.8,155.8,0,0,0,18.05,82.83l38.67,13Z"/><path id="Path_35-2" data-name="Path 35-2" class="cls-2" d="M21.38,134H90.17c4.12-5.39,13.31-21.24,3.32-51.19L56.57,95.66,18.05,82.83C8.07,112.78,17.26,128.47,21.38,134Z"/></g><path id="Path_71" data-name="Path 71" class="cls-3" d="M129.79,73.89l4,14h15.17l4-14Z"/><path id="Path_79" data-name="Path 79" class="cls-3" d="M48.64,93.13l2.7,9.51h10.3l2.69-9.51Z"/><path id="Path_72" data-name="Path 72" class="cls-3" d="M129.79,134.09l4-46.2h15.17l4,46.2"/><path id="Path_80" data-name="Path 80" class="cls-3" d="M48.64,134l2.7-31.38h10.3L64.33,134"/></svg>