<svg id="Layer_1" data-name="Layer 1" xmlns="http://www.w3.org/2000/svg" viewBox="0 0 60.01 58.04"><defs><style>.cls-1{fill:#85bde7;}.cls-2{fill:#fff;}</style></defs><title>icon4</title><path id="Path_5" data-name="Path 5" class="cls-1" d="M52.82,48.85H26.54a5.38,5.38,0,0,1-5.35-5.35v-29a5.39,5.39,0,0,1,5.35-5.35h26a5.4,5.4,0,0,1,5.35,5.35v29A5.19,5.19,0,0,1,52.82,48.85Z"/><path id="Path_6" data-name="Path 6" class="cls-1" d="M25,48.85H5.74A3.74,3.74,0,0,1,2.08,45.2V26a3.75,3.75,0,0,1,3.66-3.65H25A3.74,3.74,0,0,1,28.61,26V45.2a3.58,3.58,0,0,1-3.52,3.65Z"/><path id="Path_9" data-name="Path 9" class="cls-2" d="M29.46,43.26H49.9a3.75,3.75,0,0,0,3.65-3.65V24.28a3.73,3.73,0,0,0-3.65-3.65H29.7a3.74,3.74,0,0,0-3.65,3.65V39.61A3.39,3.39,0,0,0,29.46,43.26Z"/><path id="Path_10" data-name="Path 10" class="cls-2" d="M29.46,13.72h20.2a.78.78,0,0,0,.73-.73h0a.79.79,0,0,0-.73-.73H29.46a.79.79,0,0,0-.73.73h0A1.09,1.09,0,0,0,29.46,13.72Z"/><path id="Path_11" data-name="Path 11" class="cls-2" d="M6.47,28.9H19.36a.77.77,0,0,0,.73-.73h0a.77.77,0,0,0-.73-.73H6.47a.77.77,0,0,0-.73.73h0C6,28.66,6.22,28.9,6.47,28.9Z"/><path id="Path_12" data-name="Path 12" class="cls-2" d="M6.47,32.06H19.36a.76.76,0,0,0,.73-.73h0a.78.78,0,0,0-.73-.73H6.47a.78.78,0,0,0-.73.73h0C6,31.82,6.22,32.06,6.47,32.06Z"/><path id="Path_17" data-name="Path 17" class="cls-2" d="M6.47,35.47H19.36a.77.77,0,0,0,.73-.73h0a.77.77,0,0,0-.73-.73H6.47a.77.77,0,0,0-.73.73h0C6,35,6.22,35.47,6.47,35.47Z"/></svg>