<svg id="Layer_1" data-name="Layer 1" xmlns="http://www.w3.org/2000/svg" viewBox="0 0 60.01 58.04"><defs><style>.cls-1{fill:#85bde7;}.cls-2{fill:#fff;}</style></defs><title>icon3</title><path id="Path_4" data-name="Path 4" class="cls-1" d="M47.4,54.78H15a6.72,6.72,0,0,1-6.67-6.66V12.05A6.73,6.73,0,0,1,15,5.38H47.4a6.73,6.73,0,0,1,6.67,6.67V48.12A6.72,6.72,0,0,1,47.4,54.78Z"/><path id="Path_7" data-name="Path 7" class="cls-1" d="M35.28,7.2h-10a1.75,1.75,0,0,1-1.82-1.67V5.08a1.75,1.75,0,0,1,1.68-1.82H35.28A1.75,1.75,0,0,1,37.1,4.93v.45C36.8,6.6,36.19,7.2,35.28,7.2Z"/><path id="Path_8" data-name="Path 8" class="cls-2" d="M19.52,50.84H42.86a5.42,5.42,0,0,0,5.45-5.41V14.48A5.43,5.43,0,0,0,42.9,9H19.52a5.43,5.43,0,0,0-5.45,5.41v31a5.43,5.43,0,0,0,5.41,5.45Z"/><path id="Path_13" data-name="Path 13" class="cls-1" d="M20.74,18.11H41.65a.8.8,0,0,0,.91-.68.88.88,0,0,0,0-.23v-.3a.81.81,0,0,0-.69-.91H20.74a.8.8,0,0,0-.91.68.88.88,0,0,0,0,.23v.3A1,1,0,0,0,20.74,18.11Z"/><path id="Path_14" data-name="Path 14" class="cls-1" d="M20.74,23.87H41.65a.81.81,0,0,0,.91-.68.89.89,0,0,0,0-.23v-.3a.81.81,0,0,0-.91-.91H20.74a.8.8,0,0,0-.91.68.89.89,0,0,0,0,.23V23a.8.8,0,0,0,.68.91Z"/><path id="Path_15" data-name="Path 15" class="cls-1" d="M20.74,29.93H41.65a.81.81,0,0,0,.91-.68.89.89,0,0,0,0-.23v-.3a.81.81,0,0,0-.69-.91H20.74a.8.8,0,0,0-.91.68.89.89,0,0,0,0,.23V29a.8.8,0,0,0,.68.91A.88.88,0,0,0,20.74,29.93Z"/><path id="Path_16" data-name="Path 16" class="cls-1" d="M20.74,36H41.65a.8.8,0,0,0,.91-.68.88.88,0,0,0,0-.23v-.3a.81.81,0,0,0-.69-.91H20.74a.8.8,0,0,0-.91.68.88.88,0,0,0,0,.23v.3a.8.8,0,0,0,.68.91Z"/></svg>