<svg id="Layer_1" data-name="Layer 1" xmlns="http://www.w3.org/2000/svg" viewBox="0 0 60.01 39.59"><defs><style>.cls-1{fill:#85bde7;}.cls-2{fill:#fff;}</style></defs><title>icon6</title><path id="Path_25" data-name="Path 25" class="cls-1" d="M53.75,34H6.27a3.8,3.8,0,0,1-3.89-3.7V10.9A3.79,3.79,0,0,1,6.08,7H53.75a3.8,3.8,0,0,1,3.89,3.7V30.06A4,4,0,0,1,53.75,34Z"/><path id="Path_26" data-name="Path 26" class="cls-2" d="M8.76,4.24c7.78-1.12,14.44-.56,20.83,4.44a2.71,2.71,0,0,0,2.5.28C36,6.74,44.31,2.85,53.47,4c1.11,0,1.67,1.11,1.67,2.22v21.1a2.27,2.27,0,0,1-2.5,2.23,28.9,28.9,0,0,0-20.27,3.33,2.1,2.1,0,0,1-2.5,0A26.4,26.4,0,0,0,9.32,27.28a2.12,2.12,0,0,1-2.5-2.22V6.46C7.1,5.07,7.65,4.24,8.76,4.24Z"/></svg>