<svg id="Layer_1" data-name="Layer 1" xmlns="http://www.w3.org/2000/svg" viewBox="0 0 216 144"><defs><style>.cls-1,.cls-2{isolation:isolate;}.cls-2{font-size:4.45px;font-family:Futura-Medium, Futura;font-weight:500;}.cls-15,.cls-2{fill:#fff;}.cls-3{letter-spacing:0.01em;}.cls-4{letter-spacing:-0.02em;}.cls-5{letter-spacing:0.01em;}.cls-6{letter-spacing:0em;}.cls-7{letter-spacing:0.04em;}.cls-8{letter-spacing:0.01em;}.cls-9{letter-spacing:0.02em;}.cls-10{letter-spacing:-0.03em;}.cls-11{letter-spacing:-0.01em;}.cls-12{letter-spacing:-0.01em;}.cls-13{letter-spacing:0.02em;}.cls-14{fill:#85bde7;}</style></defs><title>icons</title><g id="Employment_Database" data-name="Employment Database" class="cls-1"><text class="cls-2" transform="translate(8.51 60.26)">E<tspan class="cls-3" x="2.52" y="0">m</tspan><tspan x="6.09" y="0">pl</tspan><tspan class="cls-4" x="9.87" y="0">o</tspan><tspan x="12.44" y="0">yment </tspan></text><text class="cls-2" transform="translate(11.04 66.19)">Da<tspan class="cls-5" x="5.9" y="0">t</tspan><tspan class="cls-6" x="7.16" y="0">abase</tspan></text></g><g id="Employment_Self-Service" data-name="Employment Self-Service" class="cls-1"><text class="cls-2" transform="translate(97.14 60.26)">E<tspan class="cls-3" x="2.52" y="0">m</tspan><tspan x="6.09" y="0">pl</tspan><tspan class="cls-4" x="9.87" y="0">o</tspan><tspan x="12.44" y="0">yment </tspan></text><text class="cls-2" transform="translate(97.74 66.19)">Self-Se<tspan class="cls-7" x="13.51" y="0">r</tspan><tspan x="15.37" y="0">vice</tspan></text></g><g id="Compliance" class="cls-1"><text class="cls-2" transform="translate(186.04 60.26)">Co<tspan class="cls-8" x="5.79" y="0">m</tspan><tspan x="9.37" y="0">pliance</tspan></text></g><g id="Learning" class="cls-1"><text class="cls-2" transform="translate(189.27 111.43)">Lea<tspan class="cls-9" x="7.1" y="0">r</tspan><tspan x="8.83" y="0">ning</tspan></text></g><g id="Payroll" class="cls-1"><text class="cls-2" transform="translate(102.42 111.43)"><tspan class="cls-10">P</tspan><tspan class="cls-5" x="2.28" y="0">a</tspan><tspan class="cls-6" x="4.99" y="0">y</tspan><tspan class="cls-11" x="7.41" y="0">r</tspan><tspan x="9.03" y="0">oll</tspan></text></g><g id="Project_Specifics" data-name="Project Specifics" class="cls-1"><text class="cls-2" transform="translate(4.64 110.88)">P<tspan class="cls-12" x="2.4" y="0">r</tspan><tspan x="4.03" y="0">oject Speci</tspan><tspan class="cls-13" x="25.94" y="0">f</tspan><tspan class="cls-6" x="27.35" y="0">ics</tspan></text></g><path id="Path_2" data-name="Path 2" class="cls-14" d="M109.73,49h-9c-1.39-1.94-5.28-8.47,3.33-22.21l2.08,2.77h7.22l2.08-2.77C124,40.56,120.14,47.09,118.76,49h-9"/><path id="Path_3" data-name="Path 3" class="cls-15" d="M109.83,47.78l1.81-1.53,3,3.89s1.67-7.22,9.72-12.64l1.53,2.37s-8.75,4.44-10.41,12.21h-1.39Z"/><path id="Path_4" data-name="Path 4" class="cls-14" d="M205.46,50.44H190.6a3.08,3.08,0,0,1-3-3V30.86a3.07,3.07,0,0,1,3-3.05h14.86a3.07,3.07,0,0,1,3,3.05V47.39A3.08,3.08,0,0,1,205.46,50.44Z"/><path id="Path_5" data-name="Path 5" class="cls-14" d="M31.13,101.72h-15a3.09,3.09,0,0,1-3.06-3.06V82.14a3.09,3.09,0,0,1,3.06-3.06H31a3.1,3.1,0,0,1,3.06,3.06V98.66A3,3,0,0,1,31.13,101.72Z"/><path id="Path_6" data-name="Path 6" class="cls-14" d="M15.23,101.72h-11a2.15,2.15,0,0,1-2.08-2.09v-11a2.15,2.15,0,0,1,2.08-2.09h11a2.15,2.15,0,0,1,2.09,2.09v11a2.05,2.05,0,0,1-2,2.09Z"/><path id="Path_7" data-name="Path 7" class="cls-14" d="M199.91,28.64h-4.59a.8.8,0,0,1-.83-.77v-.2a.79.79,0,0,1,.77-.83.06.06,0,0,1,.06,0h4.59a.79.79,0,0,1,.83.76v.21C200.6,28.36,200.32,28.64,199.91,28.64Z"/><path id="Path_8" data-name="Path 8" class="cls-15" d="M192.68,48.63h10.7a2.49,2.49,0,0,0,2.5-2.47V32a2.5,2.5,0,0,0-2.48-2.5H192.68A2.49,2.49,0,0,0,190.19,32V46.14a2.47,2.47,0,0,0,2.47,2.49Z"/><path id="Path_9" data-name="Path 9" class="cls-15" d="M17.8,98.52H29.46a2.13,2.13,0,0,0,2.09-2.08V87.69a2.14,2.14,0,0,0-2.08-2.08H17.94a2.13,2.13,0,0,0-2.08,2.08v8.75A1.93,1.93,0,0,0,17.8,98.52Z"/><path id="Path_10" data-name="Path 10" class="cls-15" d="M17.8,81.67H29.33a.43.43,0,0,0,.41-.42h0a.43.43,0,0,0-.41-.41H17.8a.43.43,0,0,0-.41.41h0A.62.62,0,0,0,17.8,81.67Z"/><path id="Path_11" data-name="Path 11" class="cls-15" d="M4.68,90.33H12a.45.45,0,0,0,.42-.42h0A.45.45,0,0,0,12,89.5H4.68a.45.45,0,0,0-.42.41h0Q4.47,90.33,4.68,90.33Z"/><path id="Path_12" data-name="Path 12" class="cls-15" d="M4.68,92.14H12a.47.47,0,0,0,.42-.42h0A.47.47,0,0,0,12,91.3H4.68a.47.47,0,0,0-.42.42h0Q4.47,92.14,4.68,92.14Z"/><path id="Path_13" data-name="Path 13" class="cls-14" d="M193.24,33.64h9.58a.37.37,0,0,0,.42-.31v-.25a.36.36,0,0,0-.31-.41.21.21,0,0,0-.11,0h-9.58a.37.37,0,0,0-.42.31v.24A.45.45,0,0,0,193.24,33.64Z"/><path id="Path_14" data-name="Path 14" class="cls-14" d="M193.24,36.28h9.58a.37.37,0,0,0,.42-.32v-.24a.37.37,0,0,0-.31-.42h-9.69a.39.39,0,0,0-.42.32v.24a.37.37,0,0,0,.32.42Z"/><path id="Path_15" data-name="Path 15" class="cls-14" d="M193.24,39.05h9.58a.37.37,0,0,0,.42-.31V38.5a.37.37,0,0,0-.31-.42h-9.69a.37.37,0,0,0-.42.31v.25a.36.36,0,0,0,.32.41A.17.17,0,0,0,193.24,39.05Z"/><path id="Path_16" data-name="Path 16" class="cls-14" d="M193.24,41.83h9.58a.37.37,0,0,0,.42-.31v-.24a.37.37,0,0,0-.31-.42h-9.69a.37.37,0,0,0-.42.31v.24a.37.37,0,0,0,.32.42A.17.17,0,0,0,193.24,41.83Z"/><path id="Path_17" data-name="Path 17" class="cls-15" d="M4.68,94.08H12a.45.45,0,0,0,.42-.42h0a.45.45,0,0,0-.42-.41H4.68a.45.45,0,0,0-.42.41h0C4.4,93.8,4.54,94.08,4.68,94.08Z"/><path id="Path_18" data-name="Path 18" class="cls-15" d="M4.68,95.88H12a.45.45,0,0,0,.42-.41h0a.46.46,0,0,0-.42-.42H4.68a.46.46,0,0,0-.42.42h0C4.4,95.75,4.54,95.88,4.68,95.88Z"/><path id="Path_24" data-name="Path 24" class="cls-14" d="M97.71,92.8v8.75c10.83,1,12.22-4.59,16.8-7a15.79,15.79,0,0,1,8.61-1.8V81.14h0c-7.36-.7-9.31.13-14.44,4.44-5.42,4.3-4.73,3.75-11,4.3h0V92.8Z"/><g id="Group_1" data-name="Group 1"><path id="Path_25" data-name="Path 25" class="cls-15" d="M111.17,85.86V87a7,7,0,0,1,1.81.55l-.69,1.39a2.37,2.37,0,0,0-1.25-.42c-.28,0-.42,0-.56.14s-.28.28-.28.42a.51.51,0,0,0,.14.42.75.75,0,0,0,.56.28l.55.13a4,4,0,0,1,1.39.84,1.67,1.67,0,0,1,.42,1.25,1.82,1.82,0,0,1-.14.83,1.76,1.76,0,0,1-.42.69,2.33,2.33,0,0,1-.69.56,8.35,8.35,0,0,1-1,.42v1.25h-.84V94.61a1.5,1.5,0,0,1-.69-.14c-.28,0-.42-.14-.7-.14s-.41-.14-.55-.28a2.36,2.36,0,0,0-.42-.28l.83-1.53a2.72,2.72,0,0,0,1.81.84,1.26,1.26,0,0,0,.69-.14c.28-.14.28-.28.28-.56s-.28-.55-.69-.69l-.56-.14a2,2,0,0,0-.83-.28,1.76,1.76,0,0,1-.56-.42.73.73,0,0,1-.28-.55c0-.28-.13-.42-.13-.7a1.69,1.69,0,0,1,.13-.83c.14-.28.14-.55.42-.69l.56-.56a2,2,0,0,1,.83-.28V86.13h.83Z"/></g><path id="Path_25-2" data-name="Path 25-2" class="cls-14" d="M210.15,101.6H186.41a1.9,1.9,0,0,1-1.95-1.85V90.08a1.91,1.91,0,0,1,1.85-2h23.84A1.9,1.9,0,0,1,212.09,90v9.68A2,2,0,0,1,210.15,101.6Z"/><path id="Path_26" data-name="Path 26" class="cls-15" d="M187.66,86.74c3.88-.55,7.22-.27,10.41,2.23a1.35,1.35,0,0,0,1.25.14A18,18,0,0,1,210,86.61c.56,0,.83.55.83,1.11V98.27a1.13,1.13,0,0,1-1.25,1.11,14.44,14.44,0,0,0-10.13,1.67,1.07,1.07,0,0,1-1.25,0,13.21,13.21,0,0,0-10.28-2.78,1.07,1.07,0,0,1-1.25-1.11v-9.3C186.82,87.16,187.1,86.74,187.66,86.74Z"/><path id="Path_1" data-name="Path 1" class="cls-14" d="M20.78,49.32h-9c-1.39-2-5.28-8.47,3.33-22.22l2.08,2.78h7.22l2.09-2.78c8.6,13.75,4.72,20.27,3.33,22.22h-9"/></svg>