<svg id="Layer_1" data-name="Layer 1" xmlns="http://www.w3.org/2000/svg" viewBox="0 0 60.01 58.04"><defs><style>.cls-1{fill:#85bde7;}.cls-2{fill:#fff;}</style></defs><title>icon5</title><path id="Path_24" data-name="Path 24" class="cls-1" d="M2.38,35.25V54.43c23.75,2.13,26.79-10,36.84-15.22a34.62,34.62,0,0,1,18.87-4V9.68h0C42,8.16,37.7,10,26.43,19.42c-11.87,9.44-10.35,8.22-24,9.44h0v6.39Z"/><g id="Group_1" data-name="Group 1"><path id="Path_25" data-name="Path 25" class="cls-2" d="M31.91,20v2.43a15.67,15.67,0,0,1,4,1.22l-1.52,3.05a5,5,0,0,0-2.74-.92c-.61,0-.92,0-1.22.31s-.61.61-.61.91a1.15,1.15,0,0,0,.3.92,1.62,1.62,0,0,0,1.22.61l1.22.3a8.87,8.87,0,0,1,3,1.83,3.74,3.74,0,0,1,.91,2.74,3.79,3.79,0,0,1-.31,1.82,3.89,3.89,0,0,1-.91,1.52A5.28,5.28,0,0,1,33.74,38a15.38,15.38,0,0,1-2.13.92v2.74H29.78V39.21a3.34,3.34,0,0,1-1.52-.3c-.61,0-.91-.31-1.52-.31-.61-.3-.92-.3-1.22-.61a4.74,4.74,0,0,0-.92-.61L26.43,34a5.86,5.86,0,0,0,4,1.83,2.77,2.77,0,0,0,1.52-.3c.61-.31.61-.61.61-1.22s-.61-1.22-1.52-1.52l-1.22-.31A4.27,4.27,0,0,0,28,31.9,4.37,4.37,0,0,1,26.73,31a1.62,1.62,0,0,1-.61-1.22c0-.61-.3-.91-.3-1.52a4,4,0,0,1,.3-1.83c.31-.61.31-1.22.92-1.52l1.22-1.22a4.23,4.23,0,0,1,1.82-.61V20.64h1.83Z"/></g></svg>