<svg id="Layer_1" data-name="Layer 1" xmlns="http://www.w3.org/2000/svg" viewBox="0 0 216 144"><defs><style>.cls-1{fill:#85bde7;}.cls-2{fill:#489acc;}.cls-3{fill:#40a4d0;}.cls-4{fill:#fff;}</style></defs><title>lightbulb</title><g id="Group_4" data-name="Group 4"><path id="Path_34" data-name="Path 34" class="cls-1" d="M153.21,81.37c-3.68-11-9.57-23.54-18.58-38.08l-9.2,12.33H93.24L84.05,43.29c-9,14.54-14.72,27-18.4,38.08l44.88,15.09Z"/><path id="Path_35" data-name="Path 35" class="cls-2" d="M69.51,140.79h79.84c4.78-6.26,15.45-24.65,3.86-59.42l-42.86,14.9-44.7-14.9C54.06,116.14,64.73,134.35,69.51,140.79Z"/></g><g id="Group_6" data-name="Group 6"><path id="Path_34-2" data-name="Path 34-2" class="cls-1" d="M205.84,100.07A125.33,125.33,0,0,0,193.11,74l-6.3,8.44H164.75L158.44,74a124,124,0,0,0-12.6,26.09l30.76,10.34Z"/><path id="Path_35-2" data-name="Path 35-2" class="cls-3" d="M148.49,140.78h54.7c3.28-4.28,10.59-16.89,2.65-40.71l-29.37,10.21-30.63-10.21C137.9,123.89,145.21,136.37,148.49,140.78Z"/></g><g id="Group_7" data-name="Group 7"><path id="Path_34-3" data-name="Path 34-3" class="cls-1" d="M72.47,100.07A124.82,124.82,0,0,0,59.74,74l-6.3,8.44H31.38L25.08,74a123.61,123.61,0,0,0-12.61,26.09l30.76,10.34Z"/><path id="Path_35-3" data-name="Path 35-3" class="cls-3" d="M15.12,140.78H69.83c3.27-4.28,10.58-16.89,2.64-40.71L43.1,110.28,12.47,100.07C4.53,123.89,11.84,136.37,15.12,140.78Z"/></g><path id="Path_41" data-name="Path 41" class="cls-4" d="M101.15,93.33l3.13,11h12l3.12-11Z"/><path id="Path_45" data-name="Path 45" class="cls-4" d="M170.17,108.26l2.14,7.57h8.19l2.14-7.57Z"/><path id="Path_47" data-name="Path 47" class="cls-4" d="M34.21,108.26l2.14,7.57h8.19l2.15-7.57Z"/><path id="Path_42" data-name="Path 42" class="cls-4" d="M101.15,140.78l3.13-36.42h12l3.12,36.42"/><path id="Path_46" data-name="Path 46" class="cls-4" d="M170.17,140.79l2.14-25h8.19l2.14,25"/><path id="Path_48" data-name="Path 48" class="cls-4" d="M34.21,140.79l2.14-25h8.19l2.15,25"/><g id="Group_9" data-name="Group 9"><g id="Group_8" data-name="Group 8"><path id="Path_49" data-name="Path 49" class="cls-1" d="M114.33,37.62c0-.69-.33-1-.83-.79s-.89.33-1.32.46a8.48,8.48,0,0,1-1.72.5,6.33,6.33,0,0,1-4.65-1.16.62.62,0,0,0-.53,0c-.13.06-.17.33-.17.49a.79.79,0,0,0,.24.5,5.42,5.42,0,0,0,2,1.35,6.08,6.08,0,0,0,4.12.13,19.73,19.73,0,0,0,2.35-.92C114.06,38.05,114.23,37.75,114.33,37.62Zm-4.72,3.8a7.25,7.25,0,0,0,4.09-1.19c.4-.33.5-.66.23-1.06s-.59-.23-.92-.1a18.48,18.48,0,0,1-1.79.66,6.12,6.12,0,0,1-5.18-.79c-.23-.16-.53-.2-.66.07a.74.74,0,0,0,.07.66A5.42,5.42,0,0,0,109.61,41.42ZM121.2,22.53c-.14.13-.43.3-.47.53s.27.49.47.56c1.58.46,3.2.89,4.82,1.29.19,0,.43-.13.62-.2a4,4,0,0,0-.26-.73,1,1,0,0,0-.43-.23L123.34,23C122.68,22.83,122,22.7,121.2,22.53Zm0-15.91c-.13-.2-.2-.5-.36-.57a1,1,0,0,0-.66.14c-.13.06-.23.26-.33.39-.56.83-1.12,1.69-1.62,2.51a12.68,12.68,0,0,0-.76,1.52.46.46,0,0,0,.1.46.76.76,0,0,0,.53.14c.16,0,.3-.24.39-.37.7-1,1.36-2,2-3.07A5.16,5.16,0,0,0,121.16,6.62ZM96.73,21.84h0l-1.22.1c-1.06.13-2.12.26-3.17.43a.73.73,0,0,0-.47.56.44.44,0,0,0,.4.46h.07a5.38,5.38,0,0,0,.69.07c1.49-.2,3-.43,4.46-.66.16,0,.43-.37.39-.5s-.29-.36-.49-.46A1.83,1.83,0,0,0,96.73,21.84ZM98.21,16c-.1-.1-.19-.33-.39-.46-1.32-.73-2.68-1.45-4-2.15a1,1,0,0,0-.63-.06.42.42,0,0,0-.42.43.39.39,0,0,0,.09.26,1.67,1.67,0,0,0,.5.49,11.11,11.11,0,0,0,1.12.63c1.06.5,2.11,1,3.2,1.45C97.92,16.69,98.21,16.46,98.21,16Zm4.1-5.45a4.74,4.74,0,0,0-.17-.46l-1.48-2.48L99.57,5.89A.4.4,0,0,0,99,5.72l-.1.07a.78.78,0,0,0-.23.59,1.78,1.78,0,0,0,.33.83c.76,1.19,1.52,2.38,2.28,3.53a1,1,0,0,0,.26.27C102,11.21,102.31,11,102.31,10.51Zm7.56-4V3.88c0-.33-.1-.63-.5-.63s-.56.2-.59.59c0,.93-.13,1.82-.13,2.74a17.72,17.72,0,0,0,.23,2.31c0,.17.26.43.4.43s.33-.23.46-.39a2.46,2.46,0,0,0,.1-.47C109.87,7.77,109.84,7.11,109.87,6.48ZM122,16.72c.27-.1.43-.13.6-.2.66-.3,1.35-.56,2-.86s1.56-.69,2.35-1.05c.13-.07.26-.37.2-.47a.81.81,0,0,0-.5-.42c-.16-.07-.4.06-.59.13-.83.33-1.62.69-2.45,1.05-.62.3-1.25.57-1.88.93a.66.66,0,0,0-.23.53A1.94,1.94,0,0,0,122,16.72ZM111.16,41.81a9.86,9.86,0,0,1-1.09,0c-.73,0-1.42-.09-2.15-.19-.39-.07-.46.13-.36.43a.76.76,0,0,0,.2.36,2,2,0,0,0,3.27-.13C111.12,42.18,111.12,42,111.16,41.81Z"/><path id="Path_50" data-name="Path 50" class="cls-1" d="M114.33,37.62c-.1.13-.27.43-.53.53a14,14,0,0,1-2.35.92,6.08,6.08,0,0,1-4.12-.13,5.42,5.42,0,0,1-2-1.35.79.79,0,0,1-.24-.5c0-.16,0-.43.17-.49a.51.51,0,0,1,.53,0,6.33,6.33,0,0,0,4.65,1.16,7.89,7.89,0,0,0,1.72-.5c.46-.13.89-.33,1.32-.46S114.33,36.93,114.33,37.62Z"/><path id="Path_51" data-name="Path 51" class="cls-1" d="M109.61,41.42a5.29,5.29,0,0,1-4.13-1.78.7.7,0,0,1-.07-.67c.13-.26.43-.23.66-.06a6,6,0,0,0,5.19.79A14.67,14.67,0,0,0,113,39c.33-.13.66-.3.92.1a.72.72,0,0,1-.17,1l-.06,0A7.21,7.21,0,0,1,109.61,41.42Z"/><path id="Path_52" data-name="Path 52" class="cls-1" d="M121.2,22.53c.82.17,1.48.3,2.14.46.86.23,1.75.47,2.61.73a.66.66,0,0,1,.43.23,3.18,3.18,0,0,1,.26.73c-.19.06-.46.23-.62.2-1.62-.4-3.24-.83-4.82-1.29-.2-.07-.5-.4-.47-.56S121.06,22.66,121.2,22.53Z"/><path id="Path_53" data-name="Path 53" class="cls-1" d="M121.16,6.62c-.23.43-.43.82-.69,1.22-.66,1-1.32,2-2,3.07a.66.66,0,0,1-.39.36.63.63,0,0,1-.53-.13.48.48,0,0,1-.1-.46,10.27,10.27,0,0,1,.76-1.52c.53-.86,1.09-1.69,1.62-2.51.1-.13.2-.33.33-.4a1,1,0,0,1,.66-.13C121,6.15,121.06,6.42,121.16,6.62Z"/><path id="Path_54" data-name="Path 54" class="cls-1" d="M96.73,21.84a1.48,1.48,0,0,1,.66,0c.2.07.46.26.49.46s-.23.47-.39.5c-1.49.26-3,.46-4.46.66a2.28,2.28,0,0,1-.69-.07c-.3,0-.53-.23-.47-.46a.74.74,0,0,1,.47-.56c1-.2,2.11-.3,3.17-.43C95.9,21.9,96.3,21.9,96.73,21.84Z"/><path id="Path_55" data-name="Path 55" class="cls-1" d="M98.21,16c0,.5-.29.73-.59.59-1.06-.46-2.15-1-3.2-1.45a12.5,12.5,0,0,1-1.13-.63A1.76,1.76,0,0,1,92.8,14a.43.43,0,0,1,.1-.61.4.4,0,0,1,.23-.08,1,1,0,0,1,.63.06c1.35.7,2.7,1.42,4,2.15A2.08,2.08,0,0,1,98.21,16Z"/><path id="Path_56" data-name="Path 56" class="cls-1" d="M102.31,10.51c0,.5-.4.73-.73.5a.68.68,0,0,1-.26-.27C100.56,9.55,99.8,8.4,99,7.21a2.07,2.07,0,0,1-.33-.83.78.78,0,0,1,.23-.59.4.4,0,0,1,.56,0,.36.36,0,0,1,.07.1l1.09,1.68c.49.83,1,1.65,1.48,2.48A1.5,1.5,0,0,1,102.31,10.51Z"/><path id="Path_57" data-name="Path 57" class="cls-1" d="M109.84,6.48V8.43a.73.73,0,0,1-.1.46c-.13.17-.3.4-.46.4s-.37-.26-.4-.43a13.7,13.7,0,0,1-.23-2.31c0-.92.1-1.82.13-2.74,0-.4.23-.6.59-.6s.5.34.5.63C109.87,4.73,109.87,5.59,109.84,6.48Z"/><path id="Path_58" data-name="Path 58" class="cls-1" d="M122,16.72c-.13-.1-.39-.2-.46-.4a.5.5,0,0,1,.23-.52c.6-.33,1.26-.63,1.89-.93.79-.36,1.61-.73,2.44-1.06.2-.06.43-.19.59-.13a1.1,1.1,0,0,1,.5.43.61.61,0,0,1-.2.46c-.76.37-1.55.73-2.34,1.06s-1.36.56-2,.86C122.35,16.59,122.19,16.62,122,16.72Z"/><path id="Path_59" data-name="Path 59" class="cls-1" d="M111.16,41.81c0,.2,0,.37-.13.47a2,2,0,0,1-3.27.13,1.07,1.07,0,0,1-.2-.36c-.1-.3,0-.5.36-.43.69.1,1.42.13,2.15.19A9.86,9.86,0,0,0,111.16,41.81Z"/></g><path id="Path_60" data-name="Path 60" class="cls-1" d="M109.21,36c1.85-.26,5.05-.56,4.85-3.73s-.29-1.39,0-2.87,5.19-6.67,4.63-10.34S116,11,109.21,11h.26c-6.83,0-8.91,4.4-9.47,8.09s4.32,8.85,4.62,10.34.2-.3,0,2.87,3,3.47,4.85,3.73Z"/></g></svg>