<svg id="Layer_1" data-name="Layer 1" xmlns="http://www.w3.org/2000/svg" viewBox="0 0 255.19 58.04"><defs><style>.cls-1{fill:#85bde7;}.cls-2{font-size:37px;fill:#fff;font-family:Oswald-Bold, Oswald;font-weight:700;}.cls-3{letter-spacing:0em;}</style></defs><title>logo</title><g id="Group_3" data-name="Group 3"><path id="Path_28" data-name="Path 28" class="cls-1" d="M72.43,50.41h3.84l-3.84-5.76Z"/><rect id="Rectangle_1" data-name="Rectangle 1" class="cls-1" x="40.91" y="43.88" width="9.61" height="6.53"/><path id="Path_29" data-name="Path 29" class="cls-1" d="M75.12,5.06,71.66,15.44l-13.07.38h0l-13.06-.38L42.07,5.06s-36.9,8.46-35,45.35H34.38V28.51H41.3v10h9.61v-10h6.91v21.9h8.46V28.51H76.66a11.46,11.46,0,0,1,3.84.76,6.92,6.92,0,0,1,2.69,1.93,6.1,6.1,0,0,1,1.54,2.69A8.4,8.4,0,0,1,85.12,37a7.74,7.74,0,0,1-1.54,5c-.77,1.15-2.31,1.92-4.23,2.69l5,6.53h26.13C112,13.52,75.12,5.06,75.12,5.06Z"/><path id="Path_31" data-name="Path 31" class="cls-1" d="M73.58,33.89H72.43v6.53h1.15a7.34,7.34,0,0,0,3.08-.77,2.89,2.89,0,0,0,0-4.61A5.78,5.78,0,0,0,73.58,33.89Z"/></g><text class="cls-2" transform="translate(115.08 51.18)">CalicoH<tspan class="cls-3" x="116.14" y="0">R</tspan></text></svg>