<svg id="Layer_1" data-name="Layer 1" xmlns="http://www.w3.org/2000/svg" viewBox="0 0 98.99 46.51"><defs><style>.cls-1{fill:#79c1ff;}</style></defs><title>logo</title><g id="Group_3" data-name="Group 3"><path id="Path_28" data-name="Path 28" class="cls-1" d="M62.25,43.5h3.52l-3.52-5.29Z"/><rect id="Rectangle_1" data-name="Rectangle 1" class="cls-1" x="33.36" y="37.51" width="8.81" height="5.99"/><path id="Path_29" data-name="Path 29" class="cls-1" d="M64.71,1.92l-3.17,9.52-12,.35h0l-12-.35L34.41,1.92S.59,9.68,2.35,43.5h25V23.42h6.34v9.16h8.81V23.42h6.34V43.5h7.75V23.42h9.51a10.08,10.08,0,0,1,3.52.7,6.3,6.3,0,0,1,2.47,1.76,5.66,5.66,0,0,1,1.41,2.47,7.68,7.68,0,0,1,.35,2.82,7.06,7.06,0,0,1-1.41,4.58c-.7,1-2.11,1.76-3.87,2.46l4.58,6h24C98.53,9.68,64.71,1.92,64.71,1.92Z"/><path id="Path_31" data-name="Path 31" class="cls-1" d="M63.3,28.35h-1v6h1a6.76,6.76,0,0,0,2.82-.71,2.64,2.64,0,0,0,0-4.23A5.26,5.26,0,0,0,63.3,28.35Z"/></g></svg>