<svg id="Layer_1" data-name="Layer 1" xmlns="http://www.w3.org/2000/svg" viewBox="0 0 216 144"><defs><style>.cls-1{fill:#85bde7;}.cls-2{font-size:19.73px;fill:#fff;font-family:Oswald-Bold, Oswald;font-weight:700;}.cls-3{letter-spacing:0em;}</style></defs><title>Artboard 1</title><g id="Group_3" data-name="Group 3"><path id="Path_28" data-name="Path 28" class="cls-1" d="M72.21,86.91h2.34L72.21,83.4Z"/><rect id="Rectangle_1" data-name="Rectangle 1" class="cls-1" x="53.03" y="82.93" width="5.85" height="3.98"/><path id="Path_29" data-name="Path 29" class="cls-1" d="M73.85,59.31l-2.11,6.32-7.95.23h0l-7.95-.23-2.11-6.32s-22.45,5.15-21.28,27.6H49.06V73.58h4.21v6.08h5.84V73.58h4.21V86.91h5.15V73.58h6.31a7,7,0,0,1,2.34.47,4.23,4.23,0,0,1,1.64,1.17,3.8,3.8,0,0,1,.93,1.63,5.41,5.41,0,0,1,.24,1.87,4.66,4.66,0,0,1-.94,3,5.39,5.39,0,0,1-2.57,1.64l3,4h15.9C96.3,64.46,73.85,59.31,73.85,59.31Z"/><path id="Path_31" data-name="Path 31" class="cls-1" d="M72.91,76.85h-.7v4h.7a4.5,4.5,0,0,0,1.87-.47,1.75,1.75,0,0,0,0-2.8A3.42,3.42,0,0,0,72.91,76.85Z"/></g><text class="cls-2" transform="translate(98.88 86.29)">CalicoH<tspan class="cls-3" x="61.93" y="0">R</tspan></text></svg>