<svg id="Layer_1" data-name="Layer 1" xmlns="http://www.w3.org/2000/svg" viewBox="0 0 216 144"><defs><style>.cls-1{fill:#fff;}</style></defs><title>socials</title><g id="Group_10" data-name="Group 10"><path id="Path_20" data-name="Path 20" class="cls-1" d="M44.68,65a11.71,11.71,0,0,1-3.66,1,6.94,6.94,0,0,0,2.87-3.53,11.78,11.78,0,0,1-4,1.57A6.33,6.33,0,0,0,35.14,62a6.42,6.42,0,0,0-6.41,6.41,5.3,5.3,0,0,0,.13,1.43A18.91,18.91,0,0,1,15.4,63.2a6.25,6.25,0,0,0-.78,3.14,6.54,6.54,0,0,0,2.88,5.35,5.29,5.29,0,0,1-2.88-.78V71a6.34,6.34,0,0,0,5.1,6.27,6.61,6.61,0,0,1-1.7.26,3.6,3.6,0,0,1-1.18-.13,6.19,6.19,0,0,0,6,4.44,13.07,13.07,0,0,1-8,2.75,6.41,6.41,0,0,1-1.57-.13,18.41,18.41,0,0,0,9.94,2.87c11.89,0,18.29-9.8,18.29-18.29v-.79A15.18,15.18,0,0,0,44.68,65Z"/></g><g id="Group_11" data-name="Group 11"><path id="Path_21" data-name="Path 21" class="cls-1" d="M97,74.7A15.69,15.69,0,1,0,78.79,90.25v-11H74.86V74.7h3.93V71.3c0-3.92,2.35-6.14,5.88-6.14a27.65,27.65,0,0,1,3.52.26v3.92h-2a2.3,2.3,0,0,0-2.61,2.48V74.7h4.31l-.65,4.57H83.62v11A15.75,15.75,0,0,0,97,74.7Z"/></g><g id="Group_12" data-name="Group 12"><path id="Path_22" data-name="Path 22" class="cls-1" d="M133.54,59c-4.32,0-4.84,0-6.41.13a10.73,10.73,0,0,0-3.92.65,8.29,8.29,0,0,0-2.74,1.83,7.26,7.26,0,0,0-1.83,2.74,10.73,10.73,0,0,0-.65,3.92c-.13,1.57-.13,2.1-.13,6.41s0,4.83.13,6.4a12.61,12.61,0,0,0,.78,3.79,6,6,0,0,0,1.7,2.88,7.26,7.26,0,0,0,2.74,1.83,13,13,0,0,0,3.79.78h6.54c4.31,0,4.83,0,6.4-.13a12.62,12.62,0,0,0,3.79-.79,6.15,6.15,0,0,0,2.74-1.83,7.15,7.15,0,0,0,1.83-2.74,12.62,12.62,0,0,0,.79-3.79c.13-1.57.13-2.09.13-6.4s0-4.84-.13-6.41a12.69,12.69,0,0,0-.79-3.79,6,6,0,0,0-1.7-2.87,7.26,7.26,0,0,0-2.74-1.83,12.61,12.61,0,0,0-3.79-.78Zm0,2.87c4.18,0,4.7,0,6.4.13a8.6,8.6,0,0,1,2.88.52,4.48,4.48,0,0,1,1.82,1.18,4.35,4.35,0,0,1,1.18,1.83,6.45,6.45,0,0,1,.52,2.87c.13,1.7.13,2.09.13,6.28s0,4.7-.13,6.4a13.94,13.94,0,0,1-.52,2.87,5.14,5.14,0,0,1-3,3,6.4,6.4,0,0,1-2.87.52c-1.7.13-2.09.13-6.4.13s-4.71,0-6.41-.13a14.07,14.07,0,0,1-2.87-.52,4.43,4.43,0,0,1-1.83-1.17A4.59,4.59,0,0,1,121.25,84a6.47,6.47,0,0,1-.52-2.88c0-1.7-.13-2.09-.13-6.27s0-4.71.13-6.4a6.75,6.75,0,0,1,.52-3,5.16,5.16,0,0,1,3-3,6.57,6.57,0,0,1,2.87-.52,47.79,47.79,0,0,1,6.41,0Zm0,4.71a8.1,8.1,0,1,0,8.1,8.1A8.09,8.09,0,0,0,133.54,66.6Zm0,13.33a5.23,5.23,0,1,1,5.22-5.23h0A5.24,5.24,0,0,1,133.54,79.93Zm10.19-13.6a1.83,1.83,0,1,1-3.66,0h0a1.83,1.83,0,0,1,3.66,0Z"/></g><g id="kWZ8Fk.tif"><g id="Group_43" data-name="Group 43"><path id="Path_33" data-name="Path 33" class="cls-1" d="M202.69,82.54c-3-3.18-5.91-6.39-9.05-9.78,3.1-2.38,6.08-4.7,9.05-7Z"/><path id="Path_34" data-name="Path 34" class="cls-1" d="M181,74.56l5.29,4.25c1.76-1.42,3.49-2.8,5.32-4.25,3.62,4,7.18,7.84,11,12H170C173.77,82.47,177.33,78.56,181,74.56Z"/><path id="Path_35" data-name="Path 35" class="cls-1" d="M202.48,62.19c-5.32,4.32-10.33,8.39-15.41,12.44a1.58,1.58,0,0,1-1.55,0c-5.08-4-10.12-8.16-15.41-12.44Z"/><path id="Path_36" data-name="Path 36" class="cls-1" d="M170,65.64c3,2.46,5.87,4.77,8.84,7.15-2.94,3.22-5.77,6.36-8.84,9.68Z"/></g></g></svg>