<?xml version="1.0" encoding="utf-8"?>
<!-- Generator: Adobe Illustrator 24.0.3, SVG Export Plug-In . SVG Version: 6.00 Build 0)  -->
<svg version="1.1" id="Layer_1" xmlns="http://www.w3.org/2000/svg" xmlns:xlink="http://www.w3.org/1999/xlink" x="0px" y="0px"
	 viewBox="0 0 216 50" style="enable-background:new 0 0 216 50;" xml:space="preserve">
<style type="text/css">
	.st0{fill:#FFFFFF;}
</style>
<title>socials</title>
<g id="Group_10">
	<path id="Path_20" class="st0" d="M44.7,17c-1.2,0.5-2.4,0.9-3.7,1c1.3-0.8,2.3-2.1,2.9-3.5c-1.2,0.8-2.6,1.3-4,1.6
		c-1.2-1.3-3-2-4.8-2c-3.5,0-6.4,2.9-6.4,6.4c0,0.5,0,1,0.1,1.4c-5.2-0.3-10.1-2.7-13.4-6.7c-0.5,1-0.8,2-0.8,3.1
		c0,2.1,1.1,4.1,2.9,5.4c-1,0-2-0.3-2.9-0.8V23c0,3,2.1,5.7,5.1,6.3c-0.6,0.2-1.1,0.2-1.7,0.3c-0.4,0-0.8,0-1.2-0.1
		c0.8,2.7,3.2,4.5,6,4.4c-2.3,1.8-5.1,2.8-8,2.8c-0.5,0-1.1,0-1.6-0.1c3,1.9,6.4,2.9,9.9,2.9c11.9,0,18.3-9.8,18.3-18.3v-0.8
		C42.7,19.3,43.8,18.2,44.7,17z"/>
</g>
<g id="Group_11">
	<path id="Path_21" class="st0" d="M97,26.7C97,18,89.9,11,81.2,11.1c-8.7,0-15.7,7.1-15.6,15.8c0,7.7,5.6,14.2,13.2,15.4v-11h-3.9
		v-4.5h3.9v-3.4c0-3.9,2.3-6.1,5.9-6.1c1.2,0,2.4,0.1,3.5,0.3v3.9h-2c-1.3-0.2-2.4,0.7-2.6,2c0,0,0,0,0,0c0,0.2,0,0.3,0,0.5v2.8h4.3
		l-0.7,4.6h-3.6v11C91.3,41.1,97,34.5,97,26.7z"/>
</g>
<g id="Group_12">
	<path id="Path_22" class="st0" d="M133.5,11c-4.3,0-4.8,0-6.4,0.1c-1.3,0-2.7,0.2-3.9,0.6c-1,0.4-2,1-2.7,1.8
		c-0.8,0.8-1.4,1.7-1.8,2.7c-0.5,1.3-0.7,2.6-0.7,3.9c-0.1,1.6-0.1,2.1-0.1,6.4s0,4.8,0.1,6.4c0.1,1.3,0.3,2.6,0.8,3.8
		c0.3,1.1,0.9,2.1,1.7,2.9c0.8,0.8,1.7,1.4,2.7,1.8c1.2,0.4,2.5,0.7,3.8,0.8h6.5c4.3,0,4.8,0,6.4-0.1c1.3-0.1,2.6-0.3,3.8-0.8
		c1.1-0.3,2-1,2.7-1.8c0.8-0.8,1.4-1.7,1.8-2.7c0.5-1.2,0.7-2.5,0.8-3.8c0.1-1.6,0.1-2.1,0.1-6.4s0-4.8-0.1-6.4
		c-0.1-1.3-0.3-2.6-0.8-3.8c-0.3-1.1-0.9-2.1-1.7-2.9c-0.8-0.8-1.7-1.4-2.7-1.8c-1.2-0.5-2.5-0.7-3.8-0.8H133.5z M133.5,13.9
		c4.2,0,4.7,0,6.4,0.1c1,0,2,0.2,2.9,0.5c0.7,0.2,1.3,0.6,1.8,1.2c0.5,0.5,0.9,1.1,1.2,1.8c0.4,0.9,0.6,1.9,0.5,2.9
		c0.1,1.7,0.1,2.1,0.1,6.3s0,4.7-0.1,6.4c-0.1,1-0.2,1.9-0.5,2.9c-0.5,1.4-1.6,2.5-3,3c-0.9,0.4-1.9,0.6-2.9,0.5
		c-1.7,0.1-2.1,0.1-6.4,0.1s-4.7,0-6.4-0.1c-1-0.1-1.9-0.2-2.9-0.5c-0.7-0.2-1.3-0.6-1.8-1.2c-0.5-0.5-0.9-1.1-1.2-1.8
		c-0.4-0.9-0.6-1.9-0.5-2.9c0-1.7-0.1-2.1-0.1-6.3s0-4.7,0.1-6.4c-0.1-1,0.1-2.1,0.5-3c0.5-1.4,1.6-2.5,3-3c0.9-0.4,1.9-0.6,2.9-0.5
		C129.3,13.8,131.4,13.8,133.5,13.9L133.5,13.9z M133.5,18.6c-4.5,0-8.1,3.6-8.1,8.1c0,4.5,3.6,8.1,8.1,8.1c4.5,0,8.1-3.6,8.1-8.1
		S138,18.6,133.5,18.6L133.5,18.6L133.5,18.6z M133.5,31.9c-2.9,0-5.2-2.3-5.2-5.2c0-2.9,2.3-5.2,5.2-5.2c2.9,0,5.2,2.3,5.2,5.2l0,0
		C138.8,29.6,136.4,31.9,133.5,31.9L133.5,31.9z M143.7,18.3c0,1-0.8,1.8-1.8,1.8s-1.8-0.8-1.8-1.8l0,0c0-1,0.8-1.8,1.8-1.8
		S143.7,17.3,143.7,18.3L143.7,18.3z"/>
</g>
<g id="kWZ8Fk.tif">
	<g id="Group_43">
		<path id="Path_33" class="st0" d="M202.7,34.5c-3-3.2-5.9-6.4-9.1-9.8c3.1-2.4,6.1-4.7,9.1-7V34.5z"/>
		<path id="Path_34" class="st0" d="M181,26.6l5.3,4.2c1.8-1.4,3.5-2.8,5.3-4.2c3.6,4,7.2,7.8,11,12H170
			C173.8,34.5,177.3,30.6,181,26.6z"/>
		<path id="Path_35" class="st0" d="M202.5,14.2c-5.3,4.3-10.3,8.4-15.4,12.4c-0.5,0.3-1.1,0.3-1.6,0c-5.1-4-10.1-8.2-15.4-12.4
			H202.5z"/>
		<path id="Path_36" class="st0" d="M170,17.6c3,2.5,5.9,4.8,8.8,7.1c-2.9,3.2-5.8,6.4-8.8,9.7V17.6z"/>
	</g>
</g>
</svg>
