<svg id="Layer_1" data-name="Layer 1" xmlns="http://www.w3.org/2000/svg" viewBox="0 0 216 50"><defs><style>.cls-1{fill:#fff;}</style></defs><title>socials</title><g id="Group_10" data-name="Group 10"><path id="Path_20" data-name="Path 20" class="cls-1" d="M44.68,17A11.76,11.76,0,0,1,41,18a6.89,6.89,0,0,0,2.87-3.53,11.81,11.81,0,0,1-4,1.57,6.32,6.32,0,0,0-4.75-2,6.42,6.42,0,0,0-6.41,6.41,5.3,5.3,0,0,0,.13,1.43A18.91,18.91,0,0,1,15.4,15.2a6.25,6.25,0,0,0-.78,3.14,6.53,6.53,0,0,0,2.88,5.35,5.34,5.34,0,0,1-2.88-.78V23a6.36,6.36,0,0,0,5.1,6.27,6.48,6.48,0,0,1-1.7.26,3.6,3.6,0,0,1-1.18-.13,6.18,6.18,0,0,0,6,4.44,13,13,0,0,1-8,2.75,6.37,6.37,0,0,1-1.57-.13,18.41,18.41,0,0,0,9.94,2.87C35.1,39.33,41.5,29.53,41.5,21v-.79A14.89,14.89,0,0,0,44.68,17Z"/></g><g id="Group_11" data-name="Group 11"><path id="Path_21" data-name="Path 21" class="cls-1" d="M97,26.7A15.69,15.69,0,1,0,78.79,42.25v-11H74.86V26.7h3.93V23.3c0-3.92,2.35-6.14,5.88-6.14a27.65,27.65,0,0,1,3.52.26v3.92h-2a2.29,2.29,0,0,0-2.59,2v0a2.26,2.26,0,0,0,0,.52V26.7H87.9l-.65,4.57H83.62v11A15.76,15.76,0,0,0,97,26.7Z"/></g><g id="Group_12" data-name="Group 12"><path id="Path_22" data-name="Path 22" class="cls-1" d="M133.54,11c-4.32,0-4.84,0-6.41.13a10.66,10.66,0,0,0-3.92.65,8.19,8.19,0,0,0-2.74,1.83,7.26,7.26,0,0,0-1.83,2.74,10.66,10.66,0,0,0-.65,3.92c-.13,1.57-.13,2.1-.13,6.41s0,4.83.13,6.4a12.61,12.61,0,0,0,.78,3.79,6,6,0,0,0,1.7,2.88,7.26,7.26,0,0,0,2.74,1.83,12.92,12.92,0,0,0,3.79.78h6.54c4.31,0,4.83,0,6.4-.13a12.62,12.62,0,0,0,3.79-.79,6.15,6.15,0,0,0,2.74-1.83,7.26,7.26,0,0,0,1.83-2.74,12.62,12.62,0,0,0,.79-3.79c.13-1.57.13-2.09.13-6.4s0-4.84-.13-6.41a12.62,12.62,0,0,0-.79-3.79,6,6,0,0,0-1.7-2.87,7.26,7.26,0,0,0-2.74-1.83,12.61,12.61,0,0,0-3.79-.78Zm0,2.87c4.18,0,4.7,0,6.4.13a8.57,8.57,0,0,1,2.88.52,4.48,4.48,0,0,1,1.82,1.18,4.35,4.35,0,0,1,1.18,1.83,6.42,6.42,0,0,1,.52,2.87c.13,1.7.13,2.09.13,6.28s0,4.7-.13,6.4a14.07,14.07,0,0,1-.52,2.87,5.11,5.11,0,0,1-3,3,6.42,6.42,0,0,1-2.87.52c-1.7.13-2.09.13-6.4.13s-4.71,0-6.41-.13a14.07,14.07,0,0,1-2.87-.52,4.33,4.33,0,0,1-1.83-1.17A4.58,4.58,0,0,1,121.25,36a6.47,6.47,0,0,1-.52-2.88c0-1.7-.13-2.09-.13-6.27s0-4.71.13-6.4a6.71,6.71,0,0,1,.52-3,5.16,5.16,0,0,1,3-3,6.59,6.59,0,0,1,2.87-.52,49,49,0,0,1,6.41,0Zm0,4.71a8.1,8.1,0,1,0,8.1,8.1,8.1,8.1,0,0,0-8.1-8.1Zm0,13.33a5.23,5.23,0,1,1,5.22-5.24h0a5.24,5.24,0,0,1-5.22,5.25Zm10.19-13.6a1.83,1.83,0,1,1-3.66,0h0a1.83,1.83,0,1,1,3.66,0Z"/></g><g id="kWZ8Fk.tif"><g id="Group_43" data-name="Group 43"><path id="Path_33" data-name="Path 33" class="cls-1" d="M202.69,34.54c-3-3.18-5.91-6.39-9.05-9.78,3.1-2.38,6.08-4.7,9.05-7Z"/><path id="Path_34" data-name="Path 34" class="cls-1" d="M181,26.56l5.29,4.25c1.76-1.42,3.49-2.8,5.32-4.25,3.62,4,7.18,7.84,11,12H170C173.77,34.47,177.33,30.56,181,26.56Z"/><path id="Path_35" data-name="Path 35" class="cls-1" d="M202.48,14.19c-5.32,4.32-10.33,8.39-15.41,12.44a1.58,1.58,0,0,1-1.55,0c-5.08-4-10.12-8.16-15.41-12.44Z"/><path id="Path_36" data-name="Path 36" class="cls-1" d="M170,17.64c3,2.46,5.87,4.77,8.84,7.15-2.94,3.22-5.77,6.36-8.84,9.68Z"/></g></g></svg>