<svg id="Layer_1" data-name="Layer 1" xmlns="http://www.w3.org/2000/svg" viewBox="0 0 216 144"><defs><style>.cls-1{fill:#4f90c7;}.cls-2{fill:#85bde7;}.cls-3{fill:#fff;}</style></defs><title>umbrella</title><g id="Group_51" data-name="Group 51"><path id="Path_75" data-name="Path 75" class="cls-1" d="M38.05,45C55.54,41,75.81,62,75.81,62s12.68-16.47,32.19-16c9.38.26,20.53,4.31,32.69,16,0,0,17.49-22.56,37.26-17.49,0,0-8.37-40.29-69.44-40.8S38.05,45,38.05,45Z"/><path id="Path_76" data-name="Path 76" class="cls-1" d="M108.25,41.49h0A2.4,2.4,0,0,1,110.79,44v92.24a2.4,2.4,0,0,1-2.54,2.54h0a2.39,2.39,0,0,1-2.53-2.54V44A2.54,2.54,0,0,1,108.25,41.49Z"/></g><g id="Group_49" data-name="Group 49"><path id="Path_34" data-name="Path 34" class="cls-2" d="M109.22,100.9A120.46,120.46,0,0,0,96.91,75.66l-6.1,8.17H69.48l-6.1-8.17A119.75,119.75,0,0,0,51.19,100.9l29.75,10Z"/><path id="Path_35" data-name="Path 35" class="cls-1" d="M53.75,140.27h52.91c3.17-4.14,10.24-16.33,2.56-39.38l-28.4,9.88-29.63-9.88C43.51,123.94,50.58,136,53.75,140.27Z"/></g><g id="Group_50" data-name="Group 50"><path id="Path_34-2" data-name="Path 34-2" class="cls-2" d="M165.3,100.86A120.56,120.56,0,0,0,153,75.62l-6.09,8.17H125.55l-6.1-8.17a119.75,119.75,0,0,0-12.19,25.24l29.75,10Z"/><path id="Path_35-2" data-name="Path 35-2" class="cls-1" d="M109.82,140.24h52.91c3.17-4.15,10.25-16.34,2.57-39.38l-28.41,9.87-29.63-9.87C99.58,123.9,106.65,136,109.82,140.24Z"/></g><path id="Path_71" data-name="Path 71" class="cls-3" d="M74.72,108.82l2.07,7.31h7.93l2.07-7.31Z"/><path id="Path_73" data-name="Path 73" class="cls-3" d="M130.25,108.78l2.07,7.32h7.93l2.07-7.32Z"/><path id="Path_72" data-name="Path 72" class="cls-3" d="M74.72,140.27l2.07-24.14h7.93l2.07,24.14"/><path id="Path_74" data-name="Path 74" class="cls-3" d="M130.25,140.24l2.07-24.14h7.93l2.07,24.14"/></svg>